<?xml version="1.0" encoding="UTF-8"?><svg id="_レイヤー_2" xmlns="http://www.w3.org/2000/svg" viewBox="0 0 101.58 62.72"><defs><style>.cls-1{fill:#fff;}</style></defs><g id="_レイヤー_1-2"><path class="cls-1" d="M72.31,0H29.27C13.1,0,0,9.55,0,21.33v9.56c0,11.78,13.1,21.33,29.27,21.33h14.84l6.68,10.5,7.53-10.5h13.99c16.17,0,29.27-9.55,29.27-21.33v-9.56c0-11.78-13.11-21.33-29.27-21.33Zm-3.55,24.33c.15-.07,.24-.05,.35,.11,.36,.47,.82,1.31,1.03,1.96,.07,.2,.04,.27-.13,.36-.25,.15-.55,.28-.92,.42-.15,.05-.2-.01-.27-.2-.31-.79-.62-1.43-1.13-2.14,.54-.25,.84-.4,1.07-.5Zm-42.24-2.23c1.02,.24,2.31,.35,3.77,.35,.98,0,1.98-.07,2.84-.12,.13-.01,.19,.04,.2,.15,.04,.31,.07,.68,.07,1.14,0,.19-.07,.27-.23,.28-1.27,.19-2.2,.63-3.28,1.33-.11,.08-.23,.12-.34,.12-.09,0-.19-.03-.28-.08-.27-.17-.55-.32-.94-.43,.7-.46,1.29-.83,1.76-1.11-.29,.04-.71,.04-1.1,.04-.51,0-1.6-.09-2.35-.23-.12-.03-.17-.08-.17-.24,0-.32,.03-.71,.05-1.19Zm-13.4,0c1.02,.24,2.31,.35,3.77,.35,.98,0,1.98-.07,2.84-.12,.13-.01,.19,.04,.2,.15,.04,.31,.07,.68,.07,1.14,0,.19-.07,.27-.23,.28-1.27,.19-2.2,.63-3.28,1.33-.11,.08-.23,.12-.34,.12-.09,0-.19-.03-.28-.08-.27-.17-.55-.32-.94-.43,.7-.46,1.29-.83,1.76-1.11-.3,.04-.71,.04-1.1,.04-.51,0-1.6-.09-2.35-.23-.12-.03-.17-.08-.17-.24,0-.32,.03-.71,.05-1.19Zm7.53,9.37c-1.25,.23-2.29,.32-3.99,.32-3,0-4.54-.97-4.54-2.71,0-.55,.2-1.13,.71-1.92,.35,.17,.68,.35,1.03,.54,.12,.07,.13,.13,.07,.24-.2,.31-.35,.75-.35,1.02,0,.84,.87,1.26,3.18,1.26,1.3,0,2.53-.15,3.63-.39,.19-.04,.25,0,.28,.12,.07,.25,.19,.98,.21,1.31,.01,.12-.07,.17-.23,.2Zm13.4,0c-1.25,.23-2.29,.32-3.99,.32-3,0-4.54-.97-4.54-2.71,0-.55,.2-1.13,.71-1.92,.35,.17,.68,.35,1.03,.54,.12,.07,.13,.13,.07,.24-.2,.31-.35,.75-.35,1.02,0,.84,.87,1.26,3.18,1.26,1.3,0,2.53-.15,3.63-.39,.19-.04,.25,0,.28,.12,.07,.25,.19,.98,.21,1.31,.01,.12-.07,.17-.23,.2Zm14.34-5.01c-.28,.04-.55,.11-.82,.2-.87,.31-1.74,.6-2.88,1.07v2.16c0,.15-.08,.21-.25,.24-.17,.03-.58,.07-.95,.07-.12,0-.17-.08-.17-.21,0-.48,0-1.15,.01-1.64-1.19,.62-1.62,1.14-1.62,1.78,0,.56,.46,.92,1.86,.92,1.23,0,2.31-.12,3.34-.27,.12-.01,.17,.03,.19,.15,.07,.31,.12,.78,.12,1.1,.01,.16-.04,.25-.15,.25-1.15,.15-2.02,.17-3.32,.17-2.2,0-3.36-.66-3.36-2.21,0-1.29,.8-2.23,2.83-3.27-.04-.68-.2-.95-.8-.92-.63,.03-1.23,.43-1.85,.97-.58,.56-.91,.95-1.34,1.46-.07,.08-.11,.12-.16,.12-.04,0-.09-.04-.15-.09-.19-.19-.59-.6-.76-.88-.04-.05-.05-.09-.05-.12,0-.05,.03-.09,.09-.15,1.03-.93,2.02-1.98,2.8-3.32-.63,.03-1.35,.04-2.14,.04-.12,0-.16-.07-.19-.21-.04-.21-.09-.71-.13-1.11,1.02,.05,2.06,.04,3.08-.01,.15-.36,.27-.68,.4-1.15,.05-.23,.09-.46,.09-.82,.59,.09,1.18,.24,1.53,.38,.11,.04,.16,.13,.16,.23,0,.07-.03,.15-.09,.2-.08,.07-.16,.19-.23,.32-.08,.19-.15,.36-.31,.72,.82-.09,1.64-.23,2.44-.42,.15-.03,.19,.01,.21,.13,.07,.27,.12,.58,.13,.97,.01,.13-.04,.19-.23,.21-1.01,.15-2.16,.29-3.14,.4-.31,.5-.6,.99-1.01,1.49v.03c.44-.28,.99-.42,1.35-.42,.88,0,1.5,.4,1.64,1.45,.52-.24,1.29-.59,1.97-.94,.25-.13,.68-.38,1.02-.72,.44,.47,.79,.94,.94,1.18,.08,.12,.11,.21,.11,.3,0,.11-.07,.16-.2,.19Zm12.05-2.43c-.13,.12-.27,.25-.4,.51-.58,1.14-1.21,2.24-1.97,3.24,.55,.44,1.06,.91,1.45,1.35,.05,.05,.08,.12,.08,.19,0,.05-.03,.12-.08,.17-.19,.23-.6,.66-.83,.84-.05,.04-.11,.07-.16,.07-.04,0-.09-.03-.15-.08-.32-.38-.86-.91-1.3-1.3-1.37,1.47-2.75,2.52-4.28,3.35-.12,.07-.23,.12-.34,.12-.08,0-.16-.04-.25-.12-.43-.35-.8-.52-1.27-.68,2.08-1.06,3.42-2.02,4.93-3.63-.51-.42-1.11-.83-1.93-1.26,.3-.32,.58-.67,.88-.95,.05-.05,.11-.09,.17-.09,.04,0,.08,.03,.13,.05,.48,.23,1.07,.62,1.73,1.07,.64-.83,1.14-1.7,1.57-2.65l-3.32,.07c-1.1,1.41-1.97,2.33-2.87,3.02-.09,.07-.17,.12-.27,.12-.07,0-.15-.03-.21-.09-.34-.24-.68-.43-1.13-.62,1.88-1.49,2.88-2.72,3.79-4.21,.43-.72,.6-1.09,.72-1.65,.46,.16,1.15,.39,1.57,.66,.11,.05,.15,.13,.15,.21,0,.09-.07,.2-.16,.27-.12,.08-.21,.19-.28,.28-.11,.19-.19,.32-.42,.67l2.36-.05c.39-.01,.56-.09,.74-.2,.09-.07,.16-.09,.23-.09s.15,.04,.24,.11c.3,.17,.67,.54,.91,.82,.08,.08,.11,.16,.11,.24s-.04,.16-.15,.25Zm5.81,3.63c-.31-.78-.72-1.51-1.26-2.16,.46-.25,.78-.4,1.06-.54,.15-.07,.24-.05,.35,.09,.47,.59,.9,1.27,1.15,1.98,.03,.09,.05,.15,.05,.2,0,.08-.05,.12-.16,.19-.32,.19-.55,.29-.86,.42-.19,.07-.27,0-.33-.19Zm7.19-2.05c-.2,.17-.29,.44-.4,.68-.58,1.37-1.27,2.59-2.02,3.57-.88,1.13-1.62,1.84-2.76,2.59-.11,.08-.21,.15-.32,.15-.07,0-.15-.03-.21-.09-.34-.27-.64-.42-1.14-.56,1.61-1.06,2.41-1.74,3.22-2.79,.67-.87,1.42-2.19,1.81-3.23,.17-.5,.25-.79,.31-1.42,.56,.17,1.17,.42,1.5,.64,.11,.08,.17,.15,.17,.23s-.04,.15-.15,.24Zm14.64,1.23c-.01,.19-.01,.24-.17,.24-.84-.03-1.62-.04-2.6-.04h-1.65c-.11,1.14-.3,1.94-.67,2.69-.47,.99-1.26,1.93-2.13,2.51-.08,.05-.15,.09-.23,.09-.07,0-.15-.03-.24-.08-.48-.25-.98-.42-1.42-.51,1.34-.79,1.96-1.47,2.51-2.48,.35-.68,.54-1.39,.59-2.23h-2.39c-.48,0-1.47,0-2.13,.05-.17,.01-.21-.09-.25-.31-.07-.25-.13-.8-.13-1.22,.95,.08,1.94,.09,2.6,.09h2.36c0-.43-.01-.97-.03-1.35-.01-.17-.03-.35-.07-.62-.88,.16-2.14,.36-3.18,.43-.2,.03-.28-.15-.34-.3-.13-.27-.32-.55-.68-.92,1.68-.08,2.72-.25,3.98-.5,.92-.2,1.6-.35,2.21-.58,.63-.24,.86-.38,1.15-.6,.46,.34,.89,.67,1.1,.94,.11,.11,.17,.23,.17,.38s-.13,.17-.35,.19c-.28,.04-.56,.16-.84,.23-.82,.23-1.64,.43-2.43,.59,.35,.04,.66,.09,.87,.17,.11,.03,.17,.09,.17,.19,0,.07-.04,.13-.08,.23-.05,.12-.08,.25-.09,.46-.01,.3-.01,.6-.01,1.06h1.66c.84,0,1.98-.07,2.59-.09,.13,0,.13,.07,.15,.21,.03,.35,.01,.76,0,1.07Zm4.73,5h-1.9v-1.81h1.9v1.81Zm-.28-2.91h-1.35l-.32-7.49h2.09l-.42,7.49Z"/></g></svg>